<mxfile host="65bd71144e">
    <diagram id="6mOy798XpB74Yk2sk_v2" name="Page-1">
        <mxGraphModel dx="2469" dy="2016" grid="1" gridSize="10" guides="1" tooltips="1" connect="1" arrows="1" fold="1" page="1" pageScale="1" pageWidth="850" pageHeight="1100" math="0" shadow="0">
            <root>
                <mxCell id="0"/>
                <mxCell id="1" style="locked=1;" parent="0"/>
                <mxCell id="363" style="edgeStyle=none;html=1;entryX=0.5;entryY=0;entryDx=0;entryDy=0;" parent="1" edge="1">
                    <mxGeometry relative="1" as="geometry">
                        <mxPoint x="616" y="130" as="sourcePoint"/>
                    </mxGeometry>
                </mxCell>
                <mxCell id="374" style="edgeStyle=none;html=1;" parent="1" source="359" target="366" edge="1">
                    <mxGeometry relative="1" as="geometry"/>
                </mxCell>
                <mxCell id="406" style="edgeStyle=none;html=1;exitX=0.75;exitY=1;exitDx=0;exitDy=0;entryX=0.75;entryY=0;entryDx=0;entryDy=0;" parent="1" source="365" target="366" edge="1">
                    <mxGeometry relative="1" as="geometry"/>
                </mxCell>
                <mxCell id="4" value="Domain_1_container" style="locked=1;" parent="0"/>
                <mxCell id="5" value="&lt;font style=&quot;font-size: 30px;&quot;&gt;&lt;b style=&quot;&quot;&gt;domain_1&lt;/b&gt;&lt;/font&gt;" style="rounded=1;whiteSpace=wrap;html=1;verticalAlign=top;fillColor=default;" parent="4" vertex="1">
                    <mxGeometry x="-550" y="-40" width="1230" height="960" as="geometry"/>
                </mxCell>
                <mxCell id="6" value="Domain_1_entities" style="locked=1;" parent="0"/>
                <mxCell id="309" value="" style="group;fontSize=8;" parent="6" vertex="1" connectable="0">
                    <mxGeometry x="-522" y="567" width="380" height="230" as="geometry"/>
                </mxCell>
                <mxCell id="310" value="group_1" style="rounded=1;html=1;fontSize=8;" parent="309" vertex="1">
                    <mxGeometry x="150.99337748344374" y="22.11538461538461" width="40.26490066225166" height="17.69230769230769" as="geometry"/>
                </mxCell>
                <mxCell id="311" style="edgeStyle=elbowEdgeStyle;rounded=1;elbow=vertical;html=1;entryX=0.25;entryY=1;entryDx=0;entryDy=0;fontSize=8;fillColor=#a20025;strokeColor=#6F0000;" parent="309" source="312" target="310" edge="1">
                    <mxGeometry relative="1" as="geometry">
                        <Array as="points">
                            <mxPoint x="130.8609271523179" y="57.49999999999999"/>
                        </Array>
                    </mxGeometry>
                </mxCell>
                <mxCell id="312" value="group_12" style="rounded=1;whiteSpace=wrap;html=1;fontSize=8;" parent="309" vertex="1">
                    <mxGeometry x="70.4635761589404" y="79.6153846153846" width="40.26490066225166" height="17.69230769230769" as="geometry"/>
                </mxCell>
                <mxCell id="313" style="edgeStyle=elbowEdgeStyle;html=1;entryX=0.5;entryY=1;entryDx=0;entryDy=0;fontSize=8;elbow=vertical;fillColor=#1ba1e2;strokeColor=#006EAF;" parent="309" source="314" target="312" edge="1">
                    <mxGeometry relative="1" as="geometry"/>
                </mxCell>
                <mxCell id="314" value="channel_2" style="rounded=1;html=1;fontSize=8;" parent="309" vertex="1">
                    <mxGeometry x="30.198675496688743" y="141.53846153846152" width="40.26490066225166" height="17.69230769230769" as="geometry"/>
                </mxCell>
                <mxCell id="315" style="edgeStyle=elbowEdgeStyle;rounded=1;elbow=vertical;html=1;fontSize=8;fillColor=#1ba1e2;strokeColor=#006EAF;" parent="309" source="316" target="312" edge="1">
                    <mxGeometry relative="1" as="geometry"/>
                </mxCell>
                <mxCell id="316" value="channel_3" style="rounded=1;html=1;fontSize=8;" parent="309" vertex="1">
                    <mxGeometry x="110.72847682119206" y="141.53846153846152" width="40.26490066225166" height="17.69230769230769" as="geometry"/>
                </mxCell>
                <mxCell id="317" style="edgeStyle=elbowEdgeStyle;rounded=1;elbow=vertical;html=1;fontSize=8;fillColor=#1ba1e2;strokeColor=#006EAF;entryX=0.75;entryY=1;entryDx=0;entryDy=0;" parent="309" source="318" target="310" edge="1">
                    <mxGeometry relative="1" as="geometry">
                        <mxPoint x="171.12582781456953" y="39.8076923076923" as="targetPoint"/>
                    </mxGeometry>
                </mxCell>
                <mxCell id="318" value="channel_1" style="rounded=1;html=1;fontSize=8;" parent="309" vertex="1">
                    <mxGeometry x="231.52317880794703" y="75.19230769230766" width="40.26490066225166" height="17.69230769230769" as="geometry"/>
                </mxCell>
                <mxCell id="319" style="edgeStyle=none;html=1;entryX=0.5;entryY=1;entryDx=0;entryDy=0;fontSize=8;fillColor=#6a00ff;strokeColor=#3700CC;" parent="309" source="320" target="318" edge="1">
                    <mxGeometry relative="1" as="geometry">
                        <Array as="points">
                            <mxPoint x="211.3907284768212" y="114.99999999999999"/>
                            <mxPoint x="251.6556291390729" y="114.99999999999999"/>
                        </Array>
                    </mxGeometry>
                </mxCell>
                <mxCell id="320" value="thing_11" style="rounded=1;html=1;fontSize=8;" parent="309" vertex="1">
                    <mxGeometry x="191.2582781456954" y="137.11538461538458" width="40.26490066225166" height="17.69230769230769" as="geometry"/>
                </mxCell>
                <mxCell id="321" style="edgeStyle=none;html=1;entryX=0.5;entryY=1;entryDx=0;entryDy=0;fontSize=8;fillColor=#6a00ff;strokeColor=#3700CC;" parent="309" source="322" target="318" edge="1">
                    <mxGeometry relative="1" as="geometry">
                        <Array as="points">
                            <mxPoint x="291.92052980132456" y="114.99999999999999"/>
                            <mxPoint x="251.6556291390729" y="114.99999999999999"/>
                        </Array>
                    </mxGeometry>
                </mxCell>
                <mxCell id="322" value="thing_12" style="rounded=1;html=1;fontSize=8;" parent="309" vertex="1">
                    <mxGeometry x="271.78807947019874" y="137.11538461538458" width="40.26490066225166" height="17.69230769230769" as="geometry"/>
                </mxCell>
                <mxCell id="323" style="edgeStyle=elbowEdgeStyle;rounded=1;elbow=vertical;html=1;entryX=0.5;entryY=1;entryDx=0;entryDy=0;fontSize=8;" parent="309" source="324" target="314" edge="1">
                    <mxGeometry relative="1" as="geometry"/>
                </mxCell>
                <mxCell id="324" value="thing_21" style="rounded=1;html=1;fontSize=8;" parent="309" vertex="1">
                    <mxGeometry y="194.61538461538456" width="40.26490066225166" height="17.69230769230769" as="geometry"/>
                </mxCell>
                <mxCell id="325" style="edgeStyle=elbowEdgeStyle;rounded=1;elbow=vertical;html=1;entryX=0.5;entryY=1;entryDx=0;entryDy=0;fontSize=8;" parent="309" source="326" target="314" edge="1">
                    <mxGeometry relative="1" as="geometry"/>
                </mxCell>
                <mxCell id="326" value="thing_22" style="rounded=1;html=1;fontSize=8;" parent="309" vertex="1">
                    <mxGeometry x="60.397350993377486" y="194.61538461538456" width="40.26490066225166" height="17.69230769230769" as="geometry"/>
                </mxCell>
                <mxCell id="327" style="edgeStyle=elbowEdgeStyle;rounded=1;elbow=vertical;html=1;fontSize=8;fillColor=#6a00ff;strokeColor=#3700CC;" parent="309" source="328" target="316" edge="1">
                    <mxGeometry relative="1" as="geometry"/>
                </mxCell>
                <mxCell id="328" value="thing_31" style="rounded=1;html=1;fontSize=8;" parent="309" vertex="1">
                    <mxGeometry x="110.72847682119206" y="194.61538461538456" width="40.26490066225166" height="17.69230769230769" as="geometry"/>
                </mxCell>
                <mxCell id="329" style="edgeStyle=elbowEdgeStyle;rounded=1;elbow=vertical;html=1;entryX=0.5;entryY=1;entryDx=0;entryDy=0;fontSize=8;fillColor=#6a00ff;strokeColor=#3700CC;" parent="309" edge="1">
                    <mxGeometry relative="1" as="geometry">
                        <mxPoint x="20.13245033112583" y="194.61538461538456" as="sourcePoint"/>
                        <mxPoint x="50.33112582781458" y="159.2307692307692" as="targetPoint"/>
                    </mxGeometry>
                </mxCell>
                <mxCell id="330" style="edgeStyle=elbowEdgeStyle;rounded=1;elbow=vertical;html=1;entryX=0.5;entryY=1;entryDx=0;entryDy=0;fontSize=8;fillColor=#6a00ff;strokeColor=#3700CC;" parent="309" edge="1">
                    <mxGeometry relative="1" as="geometry">
                        <mxPoint x="80.52980132450332" y="194.61538461538456" as="sourcePoint"/>
                        <mxPoint x="50.33112582781458" y="159.2307692307692" as="targetPoint"/>
                    </mxGeometry>
                </mxCell>
                <mxCell id="331" value="group_2" style="rounded=1;html=1;fontSize=8;" parent="309" vertex="1">
                    <mxGeometry x="339.7350993377484" y="22.11538461538461" width="40.26490066225166" height="17.69230769230769" as="geometry"/>
                </mxCell>
                <mxCell id="332" style="edgeStyle=elbowEdgeStyle;rounded=1;elbow=vertical;html=1;strokeColor=#006EAF;fontSize=8;startArrow=none;startFill=0;endArrow=classic;endFill=1;fillColor=#1ba1e2;" parent="309" source="333" target="331" edge="1">
                    <mxGeometry relative="1" as="geometry"/>
                </mxCell>
                <mxCell id="333" value="channel_4" style="rounded=1;html=1;fontSize=8;" parent="309" vertex="1">
                    <mxGeometry x="339.7350993377484" y="66.34615384615384" width="40.26490066225166" height="17.69230769230769" as="geometry"/>
                </mxCell>
                <mxCell id="334" style="edgeStyle=elbowEdgeStyle;rounded=1;elbow=vertical;html=1;entryX=0.5;entryY=1;entryDx=0;entryDy=0;strokeColor=#3700CC;fontSize=8;startArrow=none;startFill=0;endArrow=classic;endFill=1;fillColor=#6a00ff;" parent="309" source="335" target="333" edge="1">
                    <mxGeometry relative="1" as="geometry"/>
                </mxCell>
                <mxCell id="335" value="thing_41" style="rounded=1;html=1;fontSize=8;" parent="309" vertex="1">
                    <mxGeometry x="339.7350993377484" y="110.57692307692307" width="40.26490066225166" height="17.69230769230769" as="geometry"/>
                </mxCell>
                <mxCell id="429" style="edgeStyle=orthogonalEdgeStyle;html=1;exitX=0.5;exitY=1;exitDx=0;exitDy=0;entryX=0;entryY=0.75;entryDx=0;entryDy=0;fillColor=#e3c800;strokeColor=#B09500;dashed=1;dashPattern=8 8;endArrow=none;endFill=0;" parent="6" edge="1">
                    <mxGeometry relative="1" as="geometry">
                        <mxPoint x="-350.8699999999999" y="142" as="sourcePoint"/>
                        <mxPoint x="190" y="434" as="targetPoint"/>
                        <Array as="points">
                            <mxPoint x="-351" y="432"/>
                            <mxPoint x="190" y="432"/>
                        </Array>
                    </mxGeometry>
                </mxCell>
                <mxCell id="430" style="edgeStyle=orthogonalEdgeStyle;html=1;exitX=0.5;exitY=1;exitDx=0;exitDy=0;entryX=0;entryY=0.75;entryDx=0;entryDy=0;dashed=1;dashPattern=8 8;endArrow=none;endFill=0;fillColor=#e3c800;strokeColor=#B09500;" parent="6" edge="1">
                    <mxGeometry relative="1" as="geometry">
                        <mxPoint x="-350.8699999999999" y="140" as="sourcePoint"/>
                        <mxPoint x="190" y="542" as="targetPoint"/>
                        <Array as="points">
                            <mxPoint x="-351" y="542"/>
                        </Array>
                    </mxGeometry>
                </mxCell>
                <mxCell id="39" value="Domain_1_Users" style="locked=1;" parent="0"/>
                <mxCell id="101" value="" style="endArrow=none;startArrow=none;html=1;rounded=1;strokeColor=#006600;fontSize=25;startFill=0;endFill=0;fillColor=#6a00ff;dashed=1;dashPattern=1 1;strokeWidth=4;" parent="39" edge="1">
                    <mxGeometry width="50" height="50" relative="1" as="geometry">
                        <mxPoint x="190" y="760" as="sourcePoint"/>
                        <mxPoint x="70" y="760" as="targetPoint"/>
                    </mxGeometry>
                </mxCell>
                <mxCell id="102" value="Thing - Channel Relation" style="text;html=1;strokeColor=none;fillColor=none;align=left;verticalAlign=middle;whiteSpace=wrap;rounded=0;fontSize=25;" parent="39" vertex="1">
                    <mxGeometry x="200" y="709" width="300" height="30" as="geometry"/>
                </mxCell>
                <mxCell id="339" style="edgeStyle=orthogonalEdgeStyle;rounded=1;elbow=vertical;html=1;entryX=1;entryY=0.5;entryDx=0;entryDy=0;dashed=1;dashPattern=8 8;strokeColor=#B09500;fontSize=25;startArrow=none;startFill=0;endArrow=none;endFill=0;fillColor=#e3c800;" parent="39" source="308" target="316" edge="1">
                    <mxGeometry relative="1" as="geometry">
                        <Array as="points">
                            <mxPoint x="-351" y="560"/>
                            <mxPoint x="-391" y="560"/>
                            <mxPoint x="-391" y="650"/>
                            <mxPoint x="-351" y="650"/>
                            <mxPoint x="-351" y="717"/>
                        </Array>
                    </mxGeometry>
                </mxCell>
                <mxCell id="345" style="edgeStyle=orthogonalEdgeStyle;rounded=1;elbow=vertical;html=1;entryX=0.5;entryY=1;entryDx=0;entryDy=0;dashed=1;dashPattern=8 8;strokeColor=#B09500;fontSize=25;startArrow=none;startFill=0;endArrow=none;endFill=0;fillColor=#e3c800;" parent="39" source="308" target="326" edge="1">
                    <mxGeometry relative="1" as="geometry">
                        <Array as="points">
                            <mxPoint x="-351" y="560"/>
                            <mxPoint x="-390" y="560"/>
                            <mxPoint x="-390" y="650"/>
                            <mxPoint x="-351" y="650"/>
                            <mxPoint x="-351" y="790"/>
                            <mxPoint x="-442" y="790"/>
                        </Array>
                    </mxGeometry>
                </mxCell>
                <mxCell id="349" style="edgeStyle=orthogonalEdgeStyle;rounded=1;html=1;entryX=0;entryY=0.5;entryDx=0;entryDy=0;dashed=1;dashPattern=8 8;strokeColor=#B09500;fontSize=25;startArrow=none;startFill=0;endArrow=none;endFill=0;fillColor=#e3c800;" parent="39" source="308" target="335" edge="1">
                    <mxGeometry relative="1" as="geometry">
                        <Array as="points">
                            <mxPoint x="-351" y="560"/>
                            <mxPoint x="-197" y="560"/>
                            <mxPoint x="-197" y="686"/>
                            <mxPoint x="-182" y="686"/>
                        </Array>
                    </mxGeometry>
                </mxCell>
                <mxCell id="370" style="edgeStyle=orthogonalEdgeStyle;html=1;entryX=0;entryY=0.5;entryDx=0;entryDy=0;dashed=1;dashPattern=1 1;strokeColor=#006600;strokeWidth=4;fontSize=20;endArrow=none;endFill=0;" parent="39" source="308" target="365" edge="1">
                    <mxGeometry relative="1" as="geometry">
                        <Array as="points">
                            <mxPoint x="-230" y="90"/>
                            <mxPoint x="-230" y="300"/>
                        </Array>
                    </mxGeometry>
                </mxCell>
                <mxCell id="371" style="edgeStyle=orthogonalEdgeStyle;html=1;entryX=0;entryY=0.5;entryDx=0;entryDy=0;dashed=1;dashPattern=1 1;strokeColor=#006600;strokeWidth=4;fontSize=20;endArrow=none;endFill=0;" parent="39" source="308" target="366" edge="1">
                    <mxGeometry relative="1" as="geometry">
                        <Array as="points">
                            <mxPoint x="-230" y="90"/>
                            <mxPoint x="-230" y="417"/>
                        </Array>
                    </mxGeometry>
                </mxCell>
                <mxCell id="372" style="edgeStyle=orthogonalEdgeStyle;html=1;entryX=0;entryY=0.5;entryDx=0;entryDy=0;dashed=1;dashPattern=1 1;strokeColor=#006600;strokeWidth=4;fontSize=20;endArrow=none;endFill=0;" parent="39" source="308" target="359" edge="1">
                    <mxGeometry relative="1" as="geometry">
                        <Array as="points">
                            <mxPoint x="-230" y="90"/>
                            <mxPoint x="-230" y="527"/>
                        </Array>
                    </mxGeometry>
                </mxCell>
                <mxCell id="373" value="&lt;span style=&quot;font-size: 15px;&quot;&gt;group_101&lt;/span&gt;&lt;br style=&quot;font-size: 15px;&quot;&gt;&lt;span style=&quot;font-size: 15px;&quot;&gt;channel_101&lt;/span&gt;&lt;br style=&quot;font-size: 15px;&quot;&gt;&lt;span style=&quot;font-size: 15px;&quot;&gt;thing_101&lt;/span&gt;&lt;br style=&quot;font-size: 15px;&quot;&gt;&lt;span style=&quot;font-size: 15px;&quot;&gt;Administrator&lt;/span&gt;" style="edgeLabel;html=1;align=center;verticalAlign=middle;resizable=0;points=[];fontSize=20;" parent="372" vertex="1" connectable="0">
                    <mxGeometry x="-0.5255" y="4" relative="1" as="geometry">
                        <mxPoint y="-5" as="offset"/>
                    </mxGeometry>
                </mxCell>
                <mxCell id="308" value="&lt;font style=&quot;font-size: 25px;&quot;&gt;&lt;b&gt;&lt;u&gt;Domain Viewer&lt;/u&gt;&lt;/b&gt;&lt;br&gt;&lt;br&gt;user_3&lt;/font&gt;" style="rounded=1;html=1;fontSize=25;verticalAlign=top;" parent="39" vertex="1">
                    <mxGeometry x="-440.87" y="40" width="180" height="100" as="geometry"/>
                </mxCell>
                <mxCell id="343" style="edgeStyle=orthogonalEdgeStyle;rounded=1;elbow=vertical;html=1;entryX=0.25;entryY=0;entryDx=0;entryDy=0;dashed=1;dashPattern=8 8;strokeColor=#B09500;fontSize=25;startArrow=none;startFill=0;endArrow=none;endFill=0;fillColor=#e3c800;" parent="39" source="308" target="324" edge="1">
                    <mxGeometry relative="1" as="geometry">
                        <Array as="points">
                            <mxPoint x="-351" y="560"/>
                            <mxPoint x="-512" y="560"/>
                        </Array>
                    </mxGeometry>
                </mxCell>
                <mxCell id="338" style="edgeStyle=orthogonalEdgeStyle;rounded=1;elbow=vertical;html=1;entryX=0.25;entryY=0;entryDx=0;entryDy=0;dashed=1;dashPattern=8 8;strokeColor=#B09500;fontSize=25;startArrow=none;startFill=0;endArrow=none;endFill=0;fillColor=#e3c800;" parent="39" source="308" target="314" edge="1">
                    <mxGeometry relative="1" as="geometry">
                        <Array as="points">
                            <mxPoint x="-351" y="560"/>
                            <mxPoint x="-482" y="560"/>
                        </Array>
                    </mxGeometry>
                </mxCell>
                <mxCell id="337" style="edgeStyle=orthogonalEdgeStyle;rounded=1;elbow=vertical;html=1;entryX=0.25;entryY=0;entryDx=0;entryDy=0;dashed=1;dashPattern=8 8;strokeColor=#B09500;fontSize=25;startArrow=none;startFill=0;endArrow=none;endFill=0;fillColor=#e3c800;" parent="39" source="308" target="312" edge="1">
                    <mxGeometry relative="1" as="geometry">
                        <Array as="points">
                            <mxPoint x="-351" y="560"/>
                            <mxPoint x="-441" y="560"/>
                        </Array>
                    </mxGeometry>
                </mxCell>
                <mxCell id="346" style="edgeStyle=orthogonalEdgeStyle;rounded=1;elbow=vertical;html=1;entryX=1;entryY=0.5;entryDx=0;entryDy=0;dashed=1;dashPattern=8 8;strokeColor=#B09500;fontSize=25;startArrow=none;startFill=0;endArrow=none;endFill=0;fillColor=#e3c800;" parent="39" edge="1">
                    <mxGeometry relative="1" as="geometry">
                        <Array as="points">
                            <mxPoint x="-351" y="560"/>
                            <mxPoint x="-390" y="560"/>
                            <mxPoint x="-390" y="650"/>
                            <mxPoint x="-351" y="650"/>
                            <mxPoint x="-351" y="770"/>
                        </Array>
                        <mxPoint x="-350.8888888888889" y="140" as="sourcePoint"/>
                        <mxPoint x="-371.00662251655626" y="770.4615384615386" as="targetPoint"/>
                    </mxGeometry>
                </mxCell>
                <mxCell id="336" style="edgeStyle=orthogonalEdgeStyle;rounded=1;elbow=vertical;html=1;entryX=0.5;entryY=0;entryDx=0;entryDy=0;dashed=1;dashPattern=8 8;strokeColor=#B09500;fontSize=25;startArrow=none;startFill=0;endArrow=none;endFill=0;fillColor=#e3c800;" parent="39" source="308" target="310" edge="1">
                    <mxGeometry relative="1" as="geometry"/>
                </mxCell>
                <mxCell id="341" style="edgeStyle=orthogonalEdgeStyle;rounded=1;elbow=vertical;html=1;entryX=0.25;entryY=0;entryDx=0;entryDy=0;dashed=1;dashPattern=8 8;strokeColor=#B09500;fontSize=25;startArrow=none;startFill=0;endArrow=none;endFill=0;fillColor=#e3c800;" parent="39" source="308" target="320" edge="1">
                    <mxGeometry relative="1" as="geometry">
                        <Array as="points">
                            <mxPoint x="-351" y="560"/>
                            <mxPoint x="-321" y="560"/>
                        </Array>
                    </mxGeometry>
                </mxCell>
                <mxCell id="340" style="edgeStyle=orthogonalEdgeStyle;rounded=1;elbow=vertical;html=1;entryX=0.75;entryY=0;entryDx=0;entryDy=0;dashed=1;dashPattern=8 8;strokeColor=#B09500;fontSize=25;startArrow=none;startFill=0;endArrow=none;endFill=0;fillColor=#e3c800;" parent="39" source="308" target="318" edge="1">
                    <mxGeometry relative="1" as="geometry">
                        <Array as="points">
                            <mxPoint x="-351" y="560"/>
                            <mxPoint x="-260" y="560"/>
                        </Array>
                    </mxGeometry>
                </mxCell>
                <mxCell id="342" style="edgeStyle=orthogonalEdgeStyle;rounded=1;elbow=vertical;html=1;entryX=0.75;entryY=0;entryDx=0;entryDy=0;dashed=1;dashPattern=8 8;strokeColor=#B09500;fontSize=25;startArrow=none;startFill=0;endArrow=none;endFill=0;fillColor=#e3c800;" parent="39" source="308" target="322" edge="1">
                    <mxGeometry relative="1" as="geometry">
                        <Array as="points">
                            <mxPoint x="-351" y="560"/>
                            <mxPoint x="-220" y="560"/>
                        </Array>
                    </mxGeometry>
                </mxCell>
                <mxCell id="348" style="edgeStyle=orthogonalEdgeStyle;rounded=1;elbow=vertical;html=1;entryX=0;entryY=0.5;entryDx=0;entryDy=0;dashed=1;dashPattern=8 8;strokeColor=#B09500;fontSize=25;startArrow=none;startFill=0;endArrow=none;endFill=0;fillColor=#e3c800;" parent="39" source="308" target="333" edge="1">
                    <mxGeometry relative="1" as="geometry">
                        <Array as="points">
                            <mxPoint x="-351" y="560"/>
                            <mxPoint x="-197" y="560"/>
                            <mxPoint x="-197" y="642"/>
                        </Array>
                    </mxGeometry>
                </mxCell>
                <mxCell id="347" style="edgeStyle=orthogonalEdgeStyle;rounded=1;html=1;strokeColor=#B09500;fontSize=25;startArrow=none;startFill=0;endArrow=none;endFill=0;fillColor=#e3c800;dashed=1;dashPattern=8 8;entryX=0.5;entryY=0;entryDx=0;entryDy=0;" parent="39" source="308" target="331" edge="1">
                    <mxGeometry relative="1" as="geometry">
                        <mxPoint x="-162.13245033112577" y="497.6923076923076" as="targetPoint"/>
                        <Array as="points">
                            <mxPoint x="-351" y="560"/>
                            <mxPoint x="-162" y="560"/>
                        </Array>
                    </mxGeometry>
                </mxCell>
                <mxCell id="380" style="edgeStyle=orthogonalEdgeStyle;html=1;exitX=0.25;exitY=1;exitDx=0;exitDy=0;entryX=0.25;entryY=0;entryDx=0;entryDy=0;dashed=1;dashPattern=1 1;strokeWidth=4;endArrow=classic;endFill=1;fillColor=#fa6800;strokeColor=#006600;" parent="39" source="365" target="366" edge="1">
                    <mxGeometry relative="1" as="geometry"/>
                </mxCell>
                <mxCell id="389" value="Adminstator of group_101 &lt;br&gt;have Adminstator access &lt;br&gt;to channel_101" style="edgeLabel;html=1;align=center;verticalAlign=middle;resizable=0;points=[];fontSize=15;" parent="380" vertex="1" connectable="0">
                    <mxGeometry x="-0.1349" relative="1" as="geometry">
                        <mxPoint x="-95" y="5" as="offset"/>
                    </mxGeometry>
                </mxCell>
                <mxCell id="407" style="edgeStyle=none;html=1;exitX=0.75;exitY=1;exitDx=0;exitDy=0;entryX=0.75;entryY=0;entryDx=0;entryDy=0;strokeWidth=4;dashed=1;dashPattern=1 1;fillColor=#e3c800;strokeColor=#B09500;" parent="39" edge="1">
                    <mxGeometry relative="1" as="geometry">
                        <mxPoint x="70" y="330" as="sourcePoint"/>
                        <mxPoint x="70" y="386.6300000000001" as="targetPoint"/>
                    </mxGeometry>
                </mxCell>
                <mxCell id="365" value="group_101&lt;span style=&quot;color: rgba(0, 0, 0, 0); font-family: monospace; font-size: 0px; text-align: start;&quot;&gt;%3CmxGraphModel%3E%3Croot%3E%3CmxCell%20id%3D%220%22%2F%3E%3CmxCell%20id%3D%221%22%20parent%3D%220%22%2F%3E%3CmxCell%20id%3D%222%22%20value%3D%22Group%202%22%20style%3D%22rounded%3D1%3Bhtml%3D1%3BfontSize%3D25%3B%22%20vertex%3D%221%22%20parent%3D%221%22%3E%3CmxGeometry%20x%3D%22509.9961589403973%22%20y%3D%22220%22%20width%3D%2296.42384105960264%22%20height%3D%2240%22%20as%3D%22geometry%22%2F%3E%3C%2FmxCell%3E%3C%2Froot%3E%3C%2FmxGraphModel%3&lt;/span&gt;" style="rounded=1;html=1;fontSize=25;" parent="39" vertex="1">
                    <mxGeometry x="-50" y="270" width="140" height="60" as="geometry"/>
                </mxCell>
                <mxCell id="381" style="edgeStyle=orthogonalEdgeStyle;html=1;exitX=0.25;exitY=1;exitDx=0;exitDy=0;entryX=0.25;entryY=0;entryDx=0;entryDy=0;dashed=1;dashPattern=1 1;strokeWidth=4;endArrow=classic;endFill=1;fillColor=#fa6800;strokeColor=#006600;" parent="39" source="366" target="359" edge="1">
                    <mxGeometry relative="1" as="geometry"/>
                </mxCell>
                <mxCell id="391" value="Adminstator of channel_101&lt;br&gt;have Adminstator access&lt;br&gt;to thing_101" style="edgeLabel;html=1;align=center;verticalAlign=middle;resizable=0;points=[];fontSize=15;" parent="381" vertex="1" connectable="0">
                    <mxGeometry x="-0.1859" y="-1" relative="1" as="geometry">
                        <mxPoint x="-104" y="13" as="offset"/>
                    </mxGeometry>
                </mxCell>
                <mxCell id="408" style="edgeStyle=none;html=1;exitX=0.75;exitY=1;exitDx=0;exitDy=0;entryX=0.75;entryY=0;entryDx=0;entryDy=0;strokeWidth=4;dashed=1;dashPattern=1 1;fillColor=#e3c800;strokeColor=#B09500;" parent="39" edge="1">
                    <mxGeometry relative="1" as="geometry">
                        <mxPoint x="71" y="446.6300000000001" as="sourcePoint"/>
                        <mxPoint x="71" y="496.6300000000001" as="targetPoint"/>
                    </mxGeometry>
                </mxCell>
                <mxCell id="366" value="channel_101&lt;span style=&quot;color: rgba(0, 0, 0, 0); font-family: monospace; font-size: 0px; text-align: start;&quot;&gt;%3CmxGraphModel%3E%3Croot%3E%3CmxCell%20id%3D%220%22%2F%3E%3CmxCell%20id%3D%221%22%20parent%3D%220%22%2F%3E%3CmxCell%20id%3D%222%22%20value%3D%22Group%202%22%20style%3D%22rounded%3D1%3Bhtml%3D1%3BfontSize%3D25%3B%22%20vertex%3D%221%22%20parent%3D%221%22%3E%3CmxGeometry%20x%3D%22509.9961589403973%22%20y%3D%22220%22%20width%3D%2296.42384105960264%22%20height%3D%2240%22%20as%3D%22geometry%22%2F%3E%3C%2FmxCell%3E%3C%2Froot%3E%3C%2FmxGraphModel%3&lt;/span&gt;" style="rounded=1;html=1;fontSize=25;" parent="39" vertex="1">
                    <mxGeometry x="-50" y="386.63" width="140" height="60" as="geometry"/>
                </mxCell>
                <mxCell id="379" style="edgeStyle=orthogonalEdgeStyle;html=1;entryX=0.25;entryY=0;entryDx=0;entryDy=0;dashed=1;dashPattern=1 1;strokeWidth=4;endArrow=none;endFill=0;fillColor=#fa6800;strokeColor=#006600;" parent="39" source="378" target="365" edge="1">
                    <mxGeometry relative="1" as="geometry"/>
                </mxCell>
                <mxCell id="388" value="&lt;font style=&quot;font-size: 15px;&quot;&gt;&lt;font style=&quot;font-size: 15px;&quot;&gt;&amp;nbsp;Administrator of&amp;nbsp;&lt;br&gt;&lt;/font&gt;group_101&amp;nbsp;&lt;/font&gt;" style="edgeLabel;html=1;align=center;verticalAlign=middle;resizable=0;points=[];" parent="379" vertex="1" connectable="0">
                    <mxGeometry x="0.4166" y="1" relative="1" as="geometry">
                        <mxPoint x="-41" y="-40" as="offset"/>
                    </mxGeometry>
                </mxCell>
                <mxCell id="378" value="&lt;font style=&quot;font-size: 25px;&quot;&gt;&lt;b&gt;&lt;u&gt;Domain Member&lt;/u&gt;&lt;/b&gt;&lt;br&gt;&lt;br&gt;user_4&lt;/font&gt;" style="rounded=1;html=1;fontSize=25;verticalAlign=top;" parent="39" vertex="1">
                    <mxGeometry x="-170" y="40" width="230" height="100" as="geometry"/>
                </mxCell>
                <mxCell id="401" style="edgeStyle=orthogonalEdgeStyle;html=1;dashed=1;dashPattern=1 1;strokeWidth=4;endArrow=none;endFill=0;fillColor=#e3c800;strokeColor=#B09500;exitX=0.25;exitY=1;exitDx=0;exitDy=0;entryX=0.86;entryY=-0.003;entryDx=0;entryDy=0;entryPerimeter=0;" parent="39" source="415" target="365" edge="1">
                    <mxGeometry relative="1" as="geometry"/>
                </mxCell>
                <mxCell id="405" value="&lt;font style=&quot;font-size: 15px;&quot;&gt;Viewer of&amp;nbsp;&lt;br&gt;&lt;/font&gt;&lt;span style=&quot;font-size: 15px;&quot;&gt;group_101&amp;nbsp;&lt;/span&gt;" style="edgeLabel;html=1;align=center;verticalAlign=middle;resizable=0;points=[];" parent="401" vertex="1" connectable="0">
                    <mxGeometry x="-0.6174" y="-6" relative="1" as="geometry">
                        <mxPoint x="14" as="offset"/>
                    </mxGeometry>
                </mxCell>
                <mxCell id="400" value="&lt;font style=&quot;font-size: 25px;&quot;&gt;&lt;b&gt;&lt;u&gt;Domain Member&lt;/u&gt;&lt;/b&gt;&lt;br&gt;&lt;br&gt;user_5&lt;/font&gt;" style="rounded=1;html=1;fontSize=25;verticalAlign=top;" parent="39" vertex="1">
                    <mxGeometry x="120" y="40" width="230" height="100" as="geometry"/>
                </mxCell>
                <mxCell id="415" value="&lt;font style=&quot;font-size: 25px;&quot;&gt;&lt;b&gt;&lt;u&gt;Domain Member&lt;/u&gt;&lt;/b&gt;&lt;br&gt;&lt;br&gt;user_6&lt;/font&gt;" style="rounded=1;html=1;fontSize=25;verticalAlign=top;" parent="39" vertex="1">
                    <mxGeometry x="390" y="41.69" width="230" height="100" as="geometry"/>
                </mxCell>
                <mxCell id="419" style="edgeStyle=orthogonalEdgeStyle;html=1;exitX=0.5;exitY=1;exitDx=0;exitDy=0;entryX=1;entryY=0.5;entryDx=0;entryDy=0;strokeColor=#005700;endArrow=none;endFill=0;dashed=1;dashPattern=1 1;strokeWidth=4;fillColor=#008a00;" parent="39" source="415" target="418" edge="1">
                    <mxGeometry relative="1" as="geometry"/>
                </mxCell>
                <mxCell id="420" style="edgeStyle=orthogonalEdgeStyle;html=1;exitX=0.5;exitY=1;exitDx=0;exitDy=0;entryX=1;entryY=0.5;entryDx=0;entryDy=0;strokeColor=#005700;endArrow=none;endFill=0;strokeWidth=4;dashed=1;dashPattern=1 1;fillColor=#008a00;" parent="39" source="415" target="416" edge="1">
                    <mxGeometry relative="1" as="geometry">
                        <mxPoint x="562.5" y="141.69" as="sourcePoint"/>
                        <mxPoint x="560" y="418.3200000000001" as="targetPoint"/>
                    </mxGeometry>
                </mxCell>
                <mxCell id="421" value="&lt;font style=&quot;font-size: 15px;&quot;&gt;channel_201&lt;br&gt;thing_201 &lt;br&gt;Administrator&lt;/font&gt;" style="edgeLabel;html=1;align=center;verticalAlign=middle;resizable=0;points=[];" parent="420" vertex="1" connectable="0">
                    <mxGeometry x="-0.1549" y="-2" relative="1" as="geometry">
                        <mxPoint x="27" y="-143" as="offset"/>
                    </mxGeometry>
                </mxCell>
                <mxCell id="76" value="Legends" style="locked=1;" parent="0"/>
                <mxCell id="77" value="Legends" style="text;html=1;strokeColor=none;fillColor=none;align=center;verticalAlign=middle;whiteSpace=wrap;rounded=0;fontSize=25;" parent="76" vertex="1">
                    <mxGeometry x="175" y="610" width="150" height="30" as="geometry"/>
                </mxCell>
                <mxCell id="80" value="" style="endArrow=none;startArrow=classic;html=1;rounded=1;strokeColor=#6F0000;fontSize=25;startFill=1;endFill=0;fillColor=#a20025;strokeWidth=4;" parent="76" edge="1">
                    <mxGeometry width="50" height="50" relative="1" as="geometry">
                        <mxPoint x="190" y="654.79" as="sourcePoint"/>
                        <mxPoint x="70" y="654.79" as="targetPoint"/>
                    </mxGeometry>
                </mxCell>
                <mxCell id="81" value="" style="endArrow=none;startArrow=classic;html=1;rounded=1;strokeColor=#006EAF;fontSize=25;startFill=1;endFill=0;fillColor=#1ba1e2;strokeWidth=4;" parent="76" edge="1">
                    <mxGeometry width="50" height="50" relative="1" as="geometry">
                        <mxPoint x="190" y="690.79" as="sourcePoint"/>
                        <mxPoint x="70" y="690.79" as="targetPoint"/>
                    </mxGeometry>
                </mxCell>
                <mxCell id="82" value="" style="endArrow=none;startArrow=classic;html=1;rounded=1;strokeColor=#3700CC;fontSize=25;startFill=1;endFill=0;fillColor=#6a00ff;strokeWidth=4;" parent="76" edge="1">
                    <mxGeometry width="50" height="50" relative="1" as="geometry">
                        <mxPoint x="190" y="720" as="sourcePoint"/>
                        <mxPoint x="70" y="720" as="targetPoint"/>
                    </mxGeometry>
                </mxCell>
                <mxCell id="86" value="Group - Group Relation" style="text;html=1;strokeColor=none;fillColor=none;align=left;verticalAlign=middle;whiteSpace=wrap;rounded=0;fontSize=25;" parent="76" vertex="1">
                    <mxGeometry x="200" y="640" width="300" height="30" as="geometry"/>
                </mxCell>
                <mxCell id="87" value="Channel- Group Relation" style="text;html=1;strokeColor=none;fillColor=none;align=left;verticalAlign=middle;whiteSpace=wrap;rounded=0;fontSize=25;" parent="76" vertex="1">
                    <mxGeometry x="200" y="675" width="300" height="30" as="geometry"/>
                </mxCell>
                <mxCell id="88" value="User - Entity Admin Relation" style="text;html=1;strokeColor=none;fillColor=none;align=left;verticalAlign=middle;whiteSpace=wrap;rounded=0;fontSize=25;" parent="76" vertex="1">
                    <mxGeometry x="200" y="744" width="340" height="30" as="geometry"/>
                </mxCell>
                <mxCell id="384" value="" style="endArrow=none;startArrow=none;html=1;rounded=1;strokeColor=#B09500;fontSize=25;startFill=0;endFill=0;fillColor=#e3c800;dashed=1;dashPattern=1 1;strokeWidth=4;" parent="76" edge="1">
                    <mxGeometry width="50" height="50" relative="1" as="geometry">
                        <mxPoint x="190" y="827.67" as="sourcePoint"/>
                        <mxPoint x="70" y="827.67" as="targetPoint"/>
                    </mxGeometry>
                </mxCell>
                <mxCell id="385" value="User - Entity Member Relation" style="text;html=1;strokeColor=none;fillColor=none;align=left;verticalAlign=middle;whiteSpace=wrap;rounded=0;fontSize=25;" parent="76" vertex="1">
                    <mxGeometry x="200" y="813" width="340" height="30" as="geometry"/>
                </mxCell>
                <mxCell id="392" value="" style="endArrow=none;startArrow=classic;html=1;rounded=1;strokeColor=#006600;fontSize=25;startFill=1;endFill=0;fillColor=#fa6800;dashed=1;dashPattern=1 1;strokeWidth=4;" parent="76" edge="1">
                    <mxGeometry width="50" height="50" relative="1" as="geometry">
                        <mxPoint x="190" y="794.79" as="sourcePoint"/>
                        <mxPoint x="70" y="794.79" as="targetPoint"/>
                    </mxGeometry>
                </mxCell>
                <mxCell id="393" value="Inherited Admin Relation from parent" style="text;html=1;strokeColor=none;fillColor=none;align=left;verticalAlign=middle;whiteSpace=wrap;rounded=0;fontSize=25;" parent="76" vertex="1">
                    <mxGeometry x="200" y="779" width="430" height="30" as="geometry"/>
                </mxCell>
                <mxCell id="396" style="edgeStyle=orthogonalEdgeStyle;html=1;entryX=0;entryY=0.75;entryDx=0;entryDy=0;strokeColor=#B09500;dashed=1;dashPattern=8 8;endArrow=none;endFill=0;" parent="76" source="308" target="365" edge="1">
                    <mxGeometry relative="1" as="geometry">
                        <Array as="points">
                            <mxPoint x="-351" y="315"/>
                        </Array>
                    </mxGeometry>
                </mxCell>
                <mxCell id="397" style="edgeStyle=orthogonalEdgeStyle;html=1;entryX=0;entryY=0.75;entryDx=0;entryDy=0;strokeColor=#B09500;dashed=1;dashPattern=8 8;endArrow=none;endFill=0;" parent="76" source="308" target="366" edge="1">
                    <mxGeometry relative="1" as="geometry">
                        <Array as="points">
                            <mxPoint x="-351" y="432"/>
                        </Array>
                    </mxGeometry>
                </mxCell>
                <mxCell id="398" style="edgeStyle=orthogonalEdgeStyle;html=1;entryX=0;entryY=0.75;entryDx=0;entryDy=0;strokeColor=#B09500;dashed=1;dashPattern=8 8;endArrow=none;endFill=0;" parent="76" source="308" target="359" edge="1">
                    <mxGeometry relative="1" as="geometry">
                        <Array as="points">
                            <mxPoint x="-351" y="542"/>
                        </Array>
                    </mxGeometry>
                </mxCell>
                <mxCell id="399" value="&lt;span style=&quot;font-size: 25px;&quot;&gt;Domain Viewer&lt;/span&gt;" style="edgeLabel;html=1;align=center;verticalAlign=middle;resizable=0;points=[];rotation=-90;" parent="398" vertex="1" connectable="0">
                    <mxGeometry x="-0.4715" y="1" relative="1" as="geometry">
                        <mxPoint as="offset"/>
                    </mxGeometry>
                </mxCell>
                <mxCell id="413" value="" style="endArrow=none;startArrow=classic;html=1;rounded=1;strokeColor=#B09500;fontSize=25;startFill=1;endFill=0;fillColor=#e3c800;dashed=1;dashPattern=1 1;strokeWidth=4;" parent="76" edge="1">
                    <mxGeometry width="50" height="50" relative="1" as="geometry">
                        <mxPoint x="190" y="865.79" as="sourcePoint"/>
                        <mxPoint x="70" y="865.79" as="targetPoint"/>
                    </mxGeometry>
                </mxCell>
                <mxCell id="414" value="Inherited Viewer Relation from parent" style="text;html=1;strokeColor=none;fillColor=none;align=left;verticalAlign=middle;whiteSpace=wrap;rounded=0;fontSize=25;" parent="76" vertex="1">
                    <mxGeometry x="200" y="850" width="430" height="30" as="geometry"/>
                </mxCell>
                <mxCell id="91" value="user_entities" style="locked=1;" parent="0"/>
                <mxCell id="376" style="edgeStyle=none;html=1;strokeColor=#3700CC;strokeWidth=4;" parent="91" source="359" target="366" edge="1">
                    <mxGeometry relative="1" as="geometry"/>
                </mxCell>
                <mxCell id="359" value="thing_101&lt;span style=&quot;color: rgba(0, 0, 0, 0); font-family: monospace; font-size: 0px; text-align: start;&quot;&gt;%3CmxGraphModel%3E%3Croot%3E%3CmxCell%20id%3D%220%22%2F%3E%3CmxCell%20id%3D%221%22%20parent%3D%220%22%2F%3E%3CmxCell%20id%3D%222%22%20value%3D%22Group%202%22%20style%3D%22rounded%3D1%3Bhtml%3D1%3BfontSize%3D25%3B%22%20vertex%3D%221%22%20parent%3D%221%22%3E%3CmxGeometry%20x%3D%22509.9961589403973%22%20y%3D%22220%22%20width%3D%2296.42384105960264%22%20height%3D%2240%22%20as%3D%22geometry%22%2F%3E%3C%2FmxCell%3E%3C%2Froot%3E%3C%2FmxGraphModel%3&lt;/span&gt;" style="rounded=1;html=1;fontSize=25;" parent="91" vertex="1">
                    <mxGeometry x="-50" y="496.63" width="140" height="60" as="geometry"/>
                </mxCell>
                <mxCell id="377" style="edgeStyle=none;html=1;strokeColor=#006EAF;strokeWidth=4;" parent="91" source="366" target="365" edge="1">
                    <mxGeometry relative="1" as="geometry"/>
                </mxCell>
                <mxCell id="417" style="edgeStyle=none;html=1;entryX=0.5;entryY=1;entryDx=0;entryDy=0;strokeColor=#3700CC;strokeWidth=4;" parent="91" source="418" target="416" edge="1">
                    <mxGeometry relative="1" as="geometry"/>
                </mxCell>
                <mxCell id="416" value="channel_201&lt;span style=&quot;color: rgba(0, 0, 0, 0); font-family: monospace; font-size: 0px; text-align: start;&quot;&gt;%3CmxGraphModel%3E%3Croot%3E%3CmxCell%20id%3D%220%22%2F%3E%3CmxCell%20id%3D%221%22%20parent%3D%220%22%2F%3E%3CmxCell%20id%3D%222%22%20value%3D%22Group%202%22%20style%3D%22rounded%3D1%3Bhtml%3D1%3BfontSize%3D25%3B%22%20vertex%3D%221%22%20parent%3D%221%22%3E%3CmxGeometry%20x%3D%22509.9961589403973%22%20y%3D%22220%22%20width%3D%2296.42384105960264%22%20height%3D%2240%22%20as%3D%22geometry%22%2F%3E%3C%2FmxCell%3E%3C%2Froot%3E%3C%2FmxGraphModel%3&lt;/span&gt;" style="rounded=1;html=1;fontSize=25;" parent="91" vertex="1">
                    <mxGeometry x="190" y="389" width="140" height="60" as="geometry"/>
                </mxCell>
                <mxCell id="418" value="thing_201&lt;span style=&quot;color: rgba(0, 0, 0, 0); font-family: monospace; font-size: 0px; text-align: start;&quot;&gt;%3CmxGraphModel%3E%3Croot%3E%3CmxCell%20id%3D%220%22%2F%3E%3CmxCell%20id%3D%221%22%20parent%3D%220%22%2F%3E%3CmxCell%20id%3D%222%22%20value%3D%22Group%202%22%20style%3D%22rounded%3D1%3Bhtml%3D1%3BfontSize%3D25%3B%22%20vertex%3D%221%22%20parent%3D%221%22%3E%3CmxGeometry%20x%3D%22509.9961589403973%22%20y%3D%22220%22%20width%3D%2296.42384105960264%22%20height%3D%2240%22%20as%3D%22geometry%22%2F%3E%3C%2FmxCell%3E%3C%2Froot%3E%3C%2FmxGraphModel%3&lt;/span&gt;" style="rounded=1;html=1;fontSize=25;" parent="91" vertex="1">
                    <mxGeometry x="190" y="500" width="140" height="60" as="geometry"/>
                </mxCell>
                <mxCell id="423" style="edgeStyle=orthogonalEdgeStyle;html=1;entryX=0.68;entryY=0.014;entryDx=0;entryDy=0;fillColor=#0050ef;strokeColor=#001DBC;strokeWidth=4;dashed=1;dashPattern=1 1;entryPerimeter=0;endArrow=none;endFill=0;" parent="91" source="400" target="365" edge="1">
                    <mxGeometry relative="1" as="geometry">
                        <Array as="points">
                            <mxPoint x="235" y="180"/>
                            <mxPoint x="45" y="180"/>
                            <mxPoint x="45" y="271"/>
                        </Array>
                    </mxGeometry>
                </mxCell>
                <mxCell id="427" value="&lt;font style=&quot;font-size: 15px;&quot;&gt;Editor of &lt;br&gt;group_101&lt;/font&gt;" style="edgeLabel;html=1;align=center;verticalAlign=middle;resizable=0;points=[];" parent="423" vertex="1" connectable="0">
                    <mxGeometry x="-0.3111" y="-4" relative="1" as="geometry">
                        <mxPoint as="offset"/>
                    </mxGeometry>
                </mxCell>
                <mxCell id="425" style="edgeStyle=orthogonalEdgeStyle;html=1;exitX=0.75;exitY=1;exitDx=0;exitDy=0;entryX=0.75;entryY=0;entryDx=0;entryDy=0;dashed=1;dashPattern=1 1;strokeWidth=4;endArrow=classic;endFill=1;fillColor=#0050ef;strokeColor=#001DBC;" parent="91" edge="1">
                    <mxGeometry relative="1" as="geometry">
                        <mxPoint x="45" y="330" as="sourcePoint"/>
                        <mxPoint x="45" y="386.6300000000001" as="targetPoint"/>
                    </mxGeometry>
                </mxCell>
                <mxCell id="426" style="edgeStyle=orthogonalEdgeStyle;html=1;exitX=0.75;exitY=1;exitDx=0;exitDy=0;entryX=0.75;entryY=0;entryDx=0;entryDy=0;dashed=1;dashPattern=1 1;strokeWidth=4;endArrow=classic;endFill=1;fillColor=#0050ef;strokeColor=#001DBC;" parent="91" edge="1">
                    <mxGeometry relative="1" as="geometry">
                        <mxPoint x="44" y="446.6300000000001" as="sourcePoint"/>
                        <mxPoint x="44" y="496.6300000000001" as="targetPoint"/>
                    </mxGeometry>
                </mxCell>
                <mxCell id="428" style="edgeStyle=orthogonalEdgeStyle;html=1;entryX=0.5;entryY=1;entryDx=0;entryDy=0;strokeWidth=4;fontSize=15;endArrow=classic;endFill=1;fillColor=#1ba1e2;strokeColor=#006EAF;" parent="91" source="416" target="365" edge="1">
                    <mxGeometry relative="1" as="geometry">
                        <Array as="points">
                            <mxPoint x="260" y="360"/>
                            <mxPoint x="20" y="360"/>
                        </Array>
                    </mxGeometry>
                </mxCell>
            </root>
        </mxGraphModel>
    </diagram>
</mxfile>